<svg width="60" height="60" viewBox="0 0 60 60" fill="none" xmlns="http://www.w3.org/2000/svg">
<path fill-rule="evenodd" clip-rule="evenodd" d="M17.1972 30C17.1972 22.9435 22.943 17.1976 29.9993 17.1976C37.0556 17.1976 42.8014 22.9435 42.8014 30C42.8014 37.0565 37.0556 42.8024 29.9993 42.8024C22.943 42.8024 17.1972 37.0565 17.1972 30ZM43.2046 5H16.794C10.3426 5 5 10.3427 5 16.7944V43.2056C5 49.6573 10.3426 55 16.794 55H43.2046C49.7568 55 54.9986 49.6573 54.9986 43.2056V16.7944C55.0994 10.3427 49.7568 5 43.2046 5ZM45.8255 11.6532C44.4142 11.6532 43.2046 12.8629 43.2046 14.2742C43.2046 15.6855 44.4142 16.8952 45.8255 16.8952C47.2367 16.8952 48.4464 15.6855 48.4464 14.2742C48.4464 12.8629 47.2367 11.6532 45.8255 11.6532ZM46.1279 30C46.1279 21.129 38.87 13.871 29.9993 13.871C21.1286 13.871 13.8707 21.129 13.8707 30C13.8707 38.9718 21.1286 46.129 29.9993 46.129C38.9708 46.129 46.1279 38.9718 46.1279 30Z" fill="#aedcd3"/>
</svg>
