<svg width="60" height="60" viewBox="0 0 60 60" fill="none" xmlns="http://www.w3.org/2000/svg">
<path fill-rule="evenodd" clip-rule="evenodd" d="M8 30.8V52.7H18.4V29V22.9H8V30.8ZM52.4 32C51.7 26.4 49.1 22.8 41.5 22.8C37 22.8 34 24.4 32.8 26.8H32.7V22.8H24.4V28.5V52.6H33.1V37.9C33.1 34 33.9 30.3 38.6 30.3C43.4 30.3 43.8 34.7 43.8 38.2V52.7H52.7V36.3C52.7 34.8 52.6 33.4 52.4 32ZM13.2 8C10.3 8 8 10.3 8 13.2C8 16.1 10.3 18.4 13.2 18.4C16.1 18.4 18.4 16.1 18.4 13.2C18.4 10.3 16.1 8 13.2 8Z" fill="#808285"/>
</svg>
