<!-- Generator: Adobe Illustrator 19.2.1, SVG Export Plug-In  -->
<svg version="1.1"
	 xmlns="http://www.w3.org/2000/svg" xmlns:xlink="http://www.w3.org/1999/xlink" xmlns:a="http://ns.adobe.com/AdobeSVGViewerExtensions/3.0/"
	 x="0px" y="0px" width="154.5px" height="25.7px" viewBox="0 0 154.5 25.7" style="enable-background:new 0 0 154.5 25.7;"
	 xml:space="preserve">
<style type="text/css">
	.st0{fill:#ACDCD2;}
	.st1{fill:#FFFFFF;}
</style>
<defs>
</defs>
<rect class="st0" width="154.5" height="25.7"/>
<g>
	<path class="st1" d="M121.2,18.6c-0.1,0-0.3-0.1-0.4-0.2c-0.1-0.1-0.2-0.2-0.2-0.4V9.7l-4.1,6.7c0,0-0.2,0.3-0.5,0.3
		c-0.3,0-0.5-0.3-0.5-0.3l-0.3-0.4l-3.8-6.3V18c0,0.1-0.1,0.3-0.2,0.4c-0.1,0.1-0.2,0.2-0.4,0.2c-0.1,0-0.3-0.1-0.4-0.2
		c-0.1-0.1-0.2-0.2-0.2-0.4V7.8c0-0.3,0.1-0.4,0.4-0.5c0.3-0.1,0.5,0,0.6,0.2l4.6,7.6l4.6-7.6c0.1-0.2,0.3-0.3,0.6-0.2
		c0.3,0.1,0.4,0.2,0.4,0.5V18c0,0.1-0.1,0.3-0.2,0.4C121.5,18.5,121.4,18.6,121.2,18.6z"/>
</g>
<g>
	<path class="st1" d="M44.5,18.6c-0.1,0-0.3-0.1-0.4-0.2C44,18.3,44,18.2,44,18V9.7l-3.7,6.2h0l-0.3,0.5c0,0-0.2,0.3-0.5,0.3
		c-0.3,0-0.5-0.3-0.5-0.3l-0.3-0.5h0l-3.7-6.2V18c0,0.1-0.1,0.3-0.2,0.4c-0.1,0.1-0.2,0.2-0.4,0.2c-0.1,0-0.3-0.1-0.4-0.2
		c-0.1-0.1-0.2-0.2-0.2-0.4V7.8c0-0.3,0.1-0.4,0.4-0.5c0.3-0.1,0.5,0,0.6,0.2l4.6,7.6l4.6-7.6c0.1-0.2,0.3-0.3,0.6-0.2
		c0.3,0.1,0.4,0.2,0.4,0.5V18c0,0.1-0.1,0.3-0.2,0.4C44.8,18.5,44.7,18.6,44.5,18.6z"/>
</g>
<g>
	<g>
		<path class="st1" d="M81.6,18.6c-0.1,0-0.1,0-0.2,0c-0.1-0.1-0.2-0.2-0.3-0.3c-0.1-0.1-0.1-0.3,0-0.4l4.1-10.2
			c0.1-0.1,0.2-0.3,0.3-0.3c0.1-0.1,0.3-0.1,0.4,0c0.1,0.1,0.2,0.2,0.3,0.3c0.1,0.1,0.1,0.3,0,0.4l-4.1,10.2
			c-0.1,0.1-0.2,0.3-0.3,0.3C81.7,18.6,81.6,18.6,81.6,18.6z"/>
	</g>
</g>
<g>
	<g>
		<path class="st1" d="M92.1,18.6c-0.8,0-1.6-0.2-2.2-0.5c-0.8-0.4-1.3-1-1.5-1.8c0-0.1,0-0.3,0.1-0.4c0.1-0.1,0.2-0.2,0.3-0.2
			c0.1,0,0.3,0,0.4,0.1c0.1,0.1,0.2,0.2,0.2,0.3c0.1,0.5,0.5,0.9,1.1,1.2c0.5,0.2,1,0.3,1.6,0.3c0.7,0,1.2-0.2,1.7-0.6
			c0.5-0.4,0.7-0.9,0.8-1.6c0-0.4-0.1-0.8-0.5-1.2c-0.4-0.5-1.1-0.7-2.1-0.7h0h0c-1.3,0-2.2-0.4-2.9-1.1c-0.5-0.6-0.8-1.2-0.7-1.9
			c0-0.9,0.4-1.7,1.1-2.3c0.7-0.6,1.5-0.9,2.4-0.9c0.8,0,1.6,0.2,2.2,0.5c0.8,0.4,1.3,1,1.5,1.8c0,0.1,0,0.3-0.1,0.4
			c-0.1,0.1-0.2,0.2-0.3,0.2c-0.1,0-0.3,0-0.4-0.1c-0.1-0.1-0.2-0.2-0.2-0.3c-0.1-0.5-0.5-0.9-1.1-1.2c-0.5-0.2-1-0.4-1.6-0.4
			c-0.7,0-1.2,0.2-1.7,0.6c-0.5,0.4-0.7,0.9-0.8,1.6c0,0.4,0.1,0.8,0.4,1.1c0.4,0.5,1.2,0.7,2.1,0.7h0c1.3,0,2.2,0.4,2.9,1.1
			c0.5,0.5,0.8,1.2,0.7,1.9c0,0.9-0.4,1.7-1.1,2.3C93.9,18.3,93.1,18.6,92.1,18.6z"/>
	</g>
</g>
<g>
	<g>
		<path class="st1" d="M106.2,18.6H100c-0.2,0-0.3-0.1-0.4-0.2c-0.1-0.1-0.2-0.2-0.2-0.4V7.8c0-0.1,0.1-0.3,0.2-0.4
			c0.1-0.1,0.2-0.2,0.4-0.2l0,0l6.2,0c0.2,0,0.3,0.1,0.4,0.2c0.1,0.1,0.2,0.2,0.2,0.4c0,0.1-0.1,0.3-0.2,0.4
			c-0.1,0.1-0.2,0.2-0.4,0.2l-5.7,0v4.1h4.2c0.2,0,0.3,0.1,0.4,0.2c0.1,0.1,0.2,0.2,0.2,0.4c0,0.1-0.1,0.3-0.2,0.4
			c-0.1,0.1-0.2,0.2-0.4,0.2h-4.2v4.1h5.7c0.2,0,0.3,0.1,0.4,0.2c0.1,0.1,0.2,0.2,0.2,0.4c0,0.1-0.1,0.3-0.2,0.4
			C106.5,18.5,106.4,18.6,106.2,18.6z"/>
	</g>
</g>
<g>
	<g>
		<path class="st1" d="M146.7,18.6c0,0-0.1,0-0.1,0l0,0c0,0-0.1,0-0.1,0l0,0l0,0c0,0,0,0,0,0c0,0,0,0-0.1,0l0,0c0,0,0,0,0,0l0,0
			l-7-9.1v8.7c0,0.1-0.1,0.3-0.2,0.4c-0.1,0.1-0.2,0.2-0.4,0.2c-0.1,0-0.3-0.1-0.4-0.2c-0.1-0.1-0.2-0.2-0.2-0.4V7.8
			c0-0.3,0.1-0.4,0.4-0.5c0.2-0.1,0.4,0,0.6,0.2l7,9.1V7.8c0-0.1,0.1-0.3,0.2-0.4c0.1-0.1,0.2-0.2,0.4-0.2c0.1,0,0.3,0.1,0.4,0.2
			c0.1,0.1,0.2,0.2,0.2,0.4v10.3c0,0,0,0,0,0.1c0,0,0,0,0,0c0,0,0,0,0,0.1c0,0,0,0,0,0c0,0,0,0.1,0,0.1l0,0c0,0,0,0,0,0.1
			c0,0,0,0,0,0l0,0c0,0,0,0,0,0c0,0,0,0,0,0c0,0,0,0-0.1,0l0,0c0,0,0,0-0.1,0C146.8,18.6,146.8,18.6,146.7,18.6
			C146.8,18.6,146.7,18.6,146.7,18.6z"/>
	</g>
</g>
<g>
	<g>
		<path class="st1" d="M13.9,18.5H7.8c-0.1,0-0.3-0.1-0.4-0.2c-0.1-0.1-0.2-0.2-0.2-0.4V7.8c0-0.1,0.1-0.3,0.2-0.4
			c0.1-0.1,0.2-0.2,0.4-0.2h0l6.2,0c0.1,0,0.3,0.1,0.4,0.2c0.1,0.1,0.2,0.2,0.2,0.4c0,0.1-0.1,0.3-0.2,0.4c-0.1,0.1-0.2,0.2-0.4,0.2
			l-5.6,0v4h5.6c0.1,0,0.3,0.1,0.4,0.2c0.1,0.1,0.2,0.2,0.2,0.4c0,0.1-0.1,0.3-0.2,0.4c-0.1,0.1-0.2,0.2-0.4,0.2H8.3v4h5.6
			c0.1,0,0.3,0.1,0.4,0.2c0.1,0.1,0.2,0.2,0.2,0.4c0,0.1-0.1,0.3-0.2,0.4C14.2,18.5,14.1,18.5,13.9,18.5z"/>
	</g>
</g>
<g>
	<g>
		<path class="st1" d="M55.4,18.6L55.4,18.6c-0.3,0-0.5-0.1-0.6-0.3l-1-2.3h-5.2c-0.1,0-0.3-0.1-0.4-0.2c-0.1-0.1-0.2-0.2-0.2-0.4
			c0-0.1,0.1-0.3,0.2-0.4c0.1-0.1,0.2-0.2,0.4-0.2l4.8,0l-1.8-4.3l0,0l0,0L50.6,8c-0.1-0.1-0.1-0.3,0-0.4c0.1-0.1,0.1-0.2,0.3-0.3
			l0.1,0h0.1c0.2,0,0.3,0.1,0.4,0.2l0,0c0,0,0,0.1,0,0.1l4.2,10.3c0.1,0.1,0.1,0.3,0,0.4c-0.1,0.1-0.1,0.2-0.3,0.3
			C55.5,18.5,55.5,18.6,55.4,18.6L55.4,18.6z"/>
	</g>
</g>
<path class="st1" d="M134.7,17.8l-4.3-10.3c0,0,0-0.1,0-0.1l0,0c0,0,0,0-0.1-0.1c0,0,0,0,0,0c-0.1-0.1-0.1-0.1-0.2-0.1c0,0,0,0,0,0
	l-0.1,0h0l0,0l-0.1,0l0,0c0,0,0,0,0,0c-0.1,0-0.2,0.1-0.2,0.1c0,0,0,0,0,0c0,0,0,0,0,0.1l0,0l0,0c0,0,0,0.1,0,0.1l-4.3,10.3
	c-0.1,0.1-0.1,0.3,0,0.4c0.1,0.1,0.2,0.2,0.3,0.3c0.1,0,0.1,0,0.1,0l0.1,0c0.2,0,0.4-0.1,0.5-0.3l0.9-2.3h0.4h4.7h0.4l0.9,2.3
	c0.1,0.2,0.3,0.3,0.5,0.3h0.1l0,0c0,0,0,0,0.1,0c0.1-0.1,0.2-0.2,0.3-0.3C134.8,18.1,134.8,18,134.7,17.8z M129.4,10.6L129.4,10.6
	L129.4,10.6l0.6-1.5l0.6,1.4l0,0l0,0l1.8,4.3l-2.4,0l-2.4,0L129.4,10.6z"/>
<g>
	<path class="st1" d="M29,18.6c-0.1,0-0.3-0.1-0.4-0.2c-0.1-0.1-0.2-0.2-0.2-0.4V9.7l-4.1,6.7c0,0-0.2,0.3-0.5,0.3
		c-0.3,0-0.5-0.3-0.5-0.3l-0.3-0.5h0l-3.7-6.2V18c0,0.1-0.1,0.3-0.2,0.4c-0.1,0.1-0.2,0.2-0.4,0.2c-0.1,0-0.3-0.1-0.4-0.2
		c-0.1-0.1-0.2-0.2-0.2-0.4V7.8c0-0.3,0.1-0.4,0.4-0.5c0.3-0.1,0.5,0,0.6,0.2l4.6,7.6l4.6-7.6c0.1-0.2,0.3-0.3,0.6-0.2
		c0.3,0.1,0.4,0.2,0.4,0.5V18c0,0.1-0.1,0.3-0.2,0.4C29.3,18.5,29.2,18.6,29,18.6z"/>
</g>
<g>
	<path class="st1" d="M75.5,18.6L75.5,18.6c-0.4,0-0.5-0.3-0.5-0.3l-0.1-0.2l-3.7-8.8l-0.6,1.4l-3.2,7.6c0,0-0.1,0.3-0.5,0.3
		c-0.4,0-0.5-0.3-0.5-0.3l-0.1-0.2L62.3,8c-0.1-0.1-0.1-0.3,0-0.4c0.1-0.1,0.2-0.2,0.3-0.3c0.1,0,0.1,0,0.2,0c0.2,0,0.4,0.1,0.5,0.3
		l3.7,9l3.7-8.9c0,0,0,0,0-0.1c0.1-0.1,0.2-0.2,0.3-0.3c0.1,0,0.2-0.1,0.3,0l0,0c0.2,0,0.3,0.1,0.4,0.3l1,2.3l0.4,0.9l2.4,5.7l3.7-9
		c0.1-0.2,0.3-0.3,0.5-0.3l0.1,0l0.1,0c0.1,0.1,0.2,0.2,0.3,0.3c0.1,0.1,0.1,0.3,0,0.4L76,18.3C76,18.3,75.9,18.6,75.5,18.6z"/>
</g>
</svg>