<svg width="70" height="70" viewBox="0 0 70 70" fill="none" xmlns="http://www.w3.org/2000/svg">
<path fill-rule="evenodd" clip-rule="evenodd" d="M29.8 41.5L27.3 47.1L30.4 46.4L32 49.2L35.2 41.8L40 50.2L41.3 47.4L44.4 47.8L40.6 41.5H29.8Z" fill="#9D9FA2"/>
<path fill-rule="evenodd" clip-rule="evenodd" d="M68.6 31.4C68.6 30.8 68.1 30.5 67.6 30.5C67.5 28.5 67.3 26.8 66.5 24.8C66.3 24.3 65.9 24 65.5 24.1C56.6 24.6 47.7 24.9 38.8 25C38.9 25.1 38.9 25.2 39 25.3C39.3 25.8 39.7 26 40.3 26C41 26 41.7 26.6 41.8 27.3C41.8 27.9 42.2 28.3 42.7 28.5C43.4 28.8 43.7 29.5 43.4 30.2C43.2 30.8 43.4 31.3 43.8 31.7C44.4 32.2 44.4 33.1 43.9 33.7C43.5 34.1 43.4 34.7 43.7 35.2C44 35.9 43.8 36.6 43 37C42.5 37.2 42.2 37.7 42.2 38.3C42.2 39 41.6 39.7 40.8 39.7C40.3 39.7 39.8 40.1 39.7 40.6C39.4 41.3 38.7 41.6 37.9 41.4C37.3 41.1 36.8 41.3 36.4 41.7C36.4 41.8 36.3 41.8 36.3 41.8L40.6 41.9C48.7 42 57 42.3 65.2 42.9C65.7 43 66.1 42.7 66.2 42.2C69 37 68.6 31.6 68.6 31.4Z" fill="#9D9FA2"/>
<path fill-rule="evenodd" clip-rule="evenodd" d="M34.7 41.8C34.3 41.5 33.8 41.4 33.2 41.6C32.5 42 31.7 41.7 31.4 40.9C31.1 40.4 30.7 40.2 30.1 40.2C29.4 40.2 28.7 39.6 28.7 38.9C28.6 38.3 28.2 37.9 27.8 37.7C27.1 37.4 26.7 36.7 27 36C27.2 35.4 27 34.9 26.6 34.5C26 34 26 33.1 26.5 32.5C26.9 32.1 27 31.6 26.7 31C26.4 30.3 26.7 29.6 27.4 29.2C28 29 28.2 28.5 28.2 27.9C28.1 27.2 28.8 26.5 29.5 26.5C30 26.5 30.5 26.1 30.7 25.6C30.8 25.4 31 25.1 31.2 25C22.2 24.9 13.2 24.6 4.2 24C3.7 23.9 3.3 24.3 3.2 24.8C2.6 26.7 2.2 28.5 2.1 30.5C1.5 30.5 1.1 30.8 1.1 31.4C0.999997 31.6 0.599997 37 3.2 42.2C3.4 42.6 3.8 42.5 4.1 42.5C4.2 42.5 4.2 42.5 4.2 42.5C12.4 42.5 20.7 41.9 28.9 41.8H33.8H34.7Z" fill="#9D9FA2"/>
<path fill-rule="evenodd" clip-rule="evenodd" d="M41.5 32.8C41.3 29.3 38.3 26.5 34.9 26.7C31.3 27 28.6 30 28.8 33.4C29 36.9 32 39.7 35.5 39.5C39 39.3 41.7 36.3 41.5 32.8Z" fill="#9D9FA2"/>
</svg>
